<svg width="18" height="20" viewBox="0 0 18 20" fill="none" xmlns="http://www.w3.org/2000/svg">
<g clip-path="url(#clip0_216_50193)">
<path d="M6.34921 4.375C6.34921 2.99609 7.4881 1.875 8.88889 1.875C10.2897 1.875 11.4286 2.99609 11.4286 4.375V6.25H6.34921V4.375ZM4.44444 6.25H1.90476C0.853175 6.25 0 7.08984 0 8.125V16.25C0 18.3203 1.70635 20 3.80952 20H13.9683C16.0714 20 17.7778 18.3203 17.7778 16.25V8.125C17.7778 7.08984 16.9246 6.25 15.873 6.25H13.3333V4.375C13.3333 1.95703 11.3452 0 8.88889 0C6.43254 0 4.44444 1.95703 4.44444 4.375V6.25ZM5.39683 8.125C5.64941 8.125 5.89165 8.22377 6.07026 8.39959C6.24887 8.5754 6.34921 8.81386 6.34921 9.0625C6.34921 9.31114 6.24887 9.5496 6.07026 9.72541C5.89165 9.90123 5.64941 10 5.39683 10C5.14424 10 4.902 9.90123 4.72339 9.72541C4.54478 9.5496 4.44444 9.31114 4.44444 9.0625C4.44444 8.81386 4.54478 8.5754 4.72339 8.39959C4.902 8.22377 5.14424 8.125 5.39683 8.125ZM11.4286 9.0625C11.4286 8.81386 11.5289 8.5754 11.7075 8.39959C11.8861 8.22377 12.1284 8.125 12.381 8.125C12.6335 8.125 12.8758 8.22377 13.0544 8.39959C13.233 8.5754 13.3333 8.81386 13.3333 9.0625C13.3333 9.31114 13.233 9.5496 13.0544 9.72541C12.8758 9.90123 12.6335 10 12.381 10C12.1284 10 11.8861 9.90123 11.7075 9.72541C11.5289 9.5496 11.4286 9.31114 11.4286 9.0625Z" fill="#141414"/>
</g>
<defs>
<clipPath id="clip0_216_50193">
<rect width="17.7778" height="20" fill="white"/>
</clipPath>
</defs>
</svg>
