<svg width="16" height="16" viewBox="0 0 16 16" fill="none" xmlns="http://www.w3.org/2000/svg">
    <path
        fill-rule="evenodd"
        clip-rule="evenodd"
        d="M6.01147 7.87359C6.06172 7.82919 6.12142 7.79396 6.18714 7.76993C6.25286 7.74589 6.32332 7.73352 6.39448 7.73352C6.46564 7.73352 6.53609 7.74589 6.60182 7.76993C6.66754 7.79396 6.72724 7.82919 6.77749 7.87359L8.0174 8.96732L9.25731 7.87359C9.35889 7.78407 9.49666 7.73377 9.64032 7.73377C9.78398 7.73377 9.92175 7.78407 10.0233 7.87359C10.1249 7.96312 10.182 8.08454 10.182 8.21115C10.182 8.33776 10.1249 8.45919 10.0233 8.54871L8.78234 9.64149L10.0233 10.7343C10.1249 10.8238 10.182 10.9452 10.182 11.0718C10.182 11.1984 10.1249 11.3199 10.0233 11.4094C9.92175 11.4989 9.78398 11.5492 9.64032 11.5492C9.49666 11.5492 9.35889 11.4989 9.25731 11.4094L8.0174 10.3157L6.77749 11.4094C6.67591 11.4989 6.53814 11.5492 6.39448 11.5492C6.25082 11.5492 6.11305 11.4989 6.01147 11.4094C5.90989 11.3199 5.85282 11.1984 5.85282 11.0718C5.85282 10.9452 5.90989 10.8238 6.01147 10.7343L7.25246 9.64149L6.01147 8.54871C5.96109 8.50442 5.92112 8.45181 5.89385 8.39389C5.86658 8.33596 5.85254 8.27386 5.85254 8.21115C5.85254 8.14844 5.86658 8.08634 5.89385 8.02842C5.92112 7.97049 5.96109 7.91788 6.01147 7.87359Z"
        fill="#9F9F9F"
    />
    <path
        d="M8.01796 1.05927C8.73534 1.05927 9.42333 1.31043 9.93059 1.7575C10.4379 2.20457 10.7228 2.81092 10.7228 3.44317V3.91995H5.3131V3.44317C5.3131 2.81092 5.59807 2.20457 6.10533 1.7575C6.61259 1.31043 7.30059 1.05927 8.01796 1.05927ZM11.8048 3.91995V3.44317C11.8048 2.55802 11.4058 1.70912 10.6956 1.08323C9.98548 0.457336 9.02229 0.105713 8.01796 0.105713C7.01364 0.105713 6.05045 0.457336 5.34028 1.08323C4.63012 1.70912 4.23115 2.55802 4.23115 3.44317V3.91995H0.444336V13.4555C0.444336 13.9613 0.672317 14.4464 1.07813 14.8041C1.48393 15.1617 2.03433 15.3626 2.60823 15.3626H13.4277C14.0016 15.3626 14.552 15.1617 14.9578 14.8041C15.3636 14.4464 15.5916 13.9613 15.5916 13.4555V3.91995H11.8048ZM1.52628 4.8735H14.5096V13.4555C14.5096 13.7084 14.3957 13.951 14.1927 14.1298C13.9898 14.3086 13.7146 14.4091 13.4277 14.4091H2.60823C2.32128 14.4091 2.04608 14.3086 1.84318 14.1298C1.64027 13.951 1.52628 13.7084 1.52628 13.4555V4.8735Z"
        fill="#9F9F9F"
    />
</svg>