<svg width="14" height="15" viewBox="0 0 14 15" fill="none" xmlns="http://www.w3.org/2000/svg">
<g clip-path="url(#clip0_216_50206)">
<path d="M6.75283 4.13086C4.83631 4.13086 3.29044 5.63379 3.29044 7.49707C3.29044 9.36035 4.83631 10.8633 6.75283 10.8633C8.66935 10.8633 10.2152 9.36035 10.2152 7.49707C10.2152 5.63379 8.66935 4.13086 6.75283 4.13086ZM6.75283 9.68555C5.51433 9.68555 4.50183 8.7041 4.50183 7.49707C4.50183 6.29004 5.51131 5.30859 6.75283 5.30859C7.99435 5.30859 9.00384 6.29004 9.00384 7.49707C9.00384 8.7041 7.99134 9.68555 6.75283 9.68555ZM11.1644 3.99316C11.1644 4.42969 10.8028 4.77832 10.3569 4.77832C9.90786 4.77832 9.54926 4.42676 9.54926 3.99316C9.54926 3.55957 9.91087 3.20801 10.3569 3.20801C10.8028 3.20801 11.1644 3.55957 11.1644 3.99316ZM13.4576 4.79004C13.4064 3.73828 13.1593 2.80664 12.3668 2.03906C11.5773 1.27148 10.619 1.03125 9.53721 0.978516C8.42225 0.916992 5.0804 0.916992 3.96544 0.978516C2.88665 1.02832 1.92839 1.26855 1.13587 2.03613C0.343345 2.80371 0.0992606 3.73535 0.0450195 4.78711C-0.0182617 5.87109 -0.0182617 9.12012 0.0450195 10.2041C0.0962472 11.2559 0.343345 12.1875 1.13587 12.9551C1.92839 13.7227 2.88364 13.9629 3.96544 14.0156C5.0804 14.0771 8.42225 14.0771 9.53721 14.0156C10.619 13.9658 11.5773 13.7256 12.3668 12.9551C13.1563 12.1875 13.4034 11.2559 13.4576 10.2041C13.5209 9.12012 13.5209 5.87402 13.4576 4.79004ZM12.0172 11.3672C11.7822 11.9414 11.3272 12.3838 10.7335 12.6152C9.84457 12.958 7.7352 12.8789 6.75283 12.8789C5.77047 12.8789 3.65808 12.9551 2.77214 12.6152C2.18151 12.3867 1.72649 11.9443 1.48843 11.3672C1.13587 10.5029 1.21723 8.45215 1.21723 7.49707C1.21723 6.54199 1.13888 4.48828 1.48843 3.62695C1.72348 3.05273 2.1785 2.61035 2.77214 2.37891C3.66109 2.03613 5.77047 2.11523 6.75283 2.11523C7.7352 2.11523 9.84759 2.03906 10.7335 2.37891C11.3241 2.60742 11.7792 3.0498 12.0172 3.62695C12.3698 4.49121 12.2884 6.54199 12.2884 7.49707C12.2884 8.45215 12.3698 10.5059 12.0172 11.3672Z" fill="#141414"/>
</g>
<defs>
<clipPath id="clip0_216_50206">
<rect width="13.5" height="15" fill="white"/>
</clipPath>
</defs>
</svg>
