<svg width="19" height="17" viewBox="0 0 19 17" fill="none" xmlns="http://www.w3.org/2000/svg">
    <path
        fill-rule="evenodd"
        clip-rule="evenodd"
        d="M9.7332 0.722534C4.70137 0.722534 0.62207 4.31777 0.62207 8.7525C0.62207 13.1872 4.70137 16.7825 9.7332 16.7825C14.765 16.7825 18.8443 13.1872 18.8443 8.7525C18.8443 4.31777 14.765 0.722534 9.7332 0.722534ZM12.8036 7.07862C12.9545 6.94094 13.038 6.75654 13.0361 6.56514C13.0342 6.37373 12.9471 6.19064 12.7936 6.05529C12.64 5.91995 12.4322 5.84317 12.2151 5.84151C11.9979 5.83985 11.7887 5.91343 11.6325 6.0464L9.7332 7.72028L7.83394 6.0464C7.75754 5.97668 7.66614 5.92107 7.56509 5.88281C7.46403 5.84455 7.35534 5.82441 7.24537 5.82357C7.13539 5.82273 7.02632 5.8412 6.92453 5.8779C6.82273 5.91461 6.73025 5.96881 6.65248 6.03735C6.57471 6.10589 6.51321 6.1874 6.47156 6.27711C6.42992 6.36683 6.40896 6.46295 6.40991 6.55988C6.41087 6.65681 6.43372 6.7526 6.47713 6.84166C6.52054 6.93073 6.58364 7.01128 6.66275 7.07862L8.56201 8.7525L6.66275 10.4264C6.58364 10.4937 6.52054 10.5743 6.47713 10.6633C6.43372 10.7524 6.41087 10.8482 6.40991 10.9451C6.40896 11.042 6.42992 11.1382 6.47156 11.2279C6.51321 11.3176 6.57471 11.3991 6.65248 11.4676C6.73025 11.5362 6.82273 11.5904 6.92453 11.6271C7.02632 11.6638 7.13539 11.6823 7.24537 11.6814C7.35534 11.6806 7.46403 11.6604 7.56509 11.6222C7.66614 11.5839 7.75754 11.5283 7.83394 11.4586L9.7332 9.78471L11.6325 11.4586C11.7887 11.5916 11.9979 11.6652 12.2151 11.6635C12.4322 11.6618 12.64 11.5851 12.7936 11.4497C12.9471 11.3144 13.0342 11.1313 13.0361 10.9399C13.038 10.7485 12.9545 10.5641 12.8036 10.4264L10.9044 8.7525L12.8036 7.07862Z"
        fill="#9F9F9F"
    />
</svg>