<svg width="80" height="69" viewBox="0 0 80 69" fill="none" xmlns="http://www.w3.org/2000/svg">
<path d="M39.9955 23.861C39.0248 23.8657 38.0951 24.2664 37.4087 24.9759C36.7223 25.6855 36.3346 26.6465 36.3301 27.65V42.8419C36.3301 43.8479 36.7167 44.8128 37.4049 45.5243C38.0931 46.2357 39.0266 46.6353 39.9998 46.6353C40.9731 46.6353 41.9065 46.2357 42.5948 45.5243C43.283 44.8128 43.6696 43.8479 43.6696 42.8419V27.65C43.665 26.645 43.2762 25.6826 42.5879 24.9728C41.8996 24.263 40.9678 23.8633 39.9955 23.861Z" fill="#2E2E2E"/>
<path d="M44.5857 37.1404H51.0088V39.035H44.5857V37.1404ZM29.0248 39.035H35.448V37.1404H28.9902L29.0248 39.035Z" fill="#2E2E2E"/>
<path d="M58.1673 0.15273H55.4441C55.3209 0.14792 55.198 0.168865 55.0828 0.214311C54.9676 0.259757 54.8625 0.328769 54.7737 0.417214C54.6849 0.505658 54.6143 0.611716 54.5661 0.729037C54.5179 0.846357 54.4931 0.972526 54.4932 1.09999V3.03918L48.7184 5.02306V8.43676L44.3959 11.3947C43.7275 10.4269 42.8361 9.64674 41.8025 9.12486V6.79247C41.8026 6.54731 41.7109 6.31164 41.5464 6.13498C41.382 5.95833 41.1577 5.85446 40.9207 5.84521H39.0793C38.9583 5.84403 38.8382 5.86766 38.726 5.91473C38.6138 5.96181 38.5118 6.0314 38.4258 6.11948C38.3397 6.20755 38.2715 6.31238 38.2249 6.42789C38.1783 6.5434 38.1543 6.66732 38.1543 6.79247V9.08912C37.1207 9.61099 36.2293 10.3912 35.5608 11.359L31.2384 8.40102V5.02306L25.5068 3.03918V1.09999C25.5068 0.975592 25.4831 0.852414 25.4371 0.737488C25.391 0.622561 25.3235 0.518136 25.2384 0.430175C25.1533 0.342214 25.0523 0.27244 24.9411 0.224836C24.8299 0.177231 24.7108 0.15273 24.5904 0.15273H21.8327C21.3467 0.15273 20.8805 0.35233 20.5368 0.70762C20.1931 1.06291 20 1.54479 20 2.04724C20 2.5497 20.1931 3.03158 20.5368 3.38687C20.8805 3.74216 21.3467 3.94176 21.8327 3.94176H25.2475L30.3652 5.72904V7.30184H25.7834V9.19636H30.6938L35.0594 12.2079C33.404 15.1955 32.5756 18.5962 32.6648 22.0379C32.5703 25.673 33.5275 29.2544 35.4139 32.3237V27.6589C35.4652 26.4372 35.9708 25.2831 36.8253 24.4374C37.6797 23.5917 38.817 23.1196 40 23.1196C41.183 23.1196 42.3203 23.5917 43.1747 24.4374C44.0292 25.2831 44.5348 26.4372 44.5861 27.6589V32.3237C46.4858 29.2341 47.4436 25.6257 47.3352 21.9665C47.4244 18.5247 46.596 15.124 44.9406 12.1364L49.3062 9.12486H54.2166V7.30184H49.6348V5.71116L54.7525 3.92389H58.1673C58.408 3.92389 58.6463 3.87488 58.8686 3.77968C59.091 3.68447 59.293 3.54492 59.4632 3.369C59.6334 3.19307 59.7684 2.98422 59.8605 2.75437C59.9526 2.52452 60 2.27816 60 2.02937C60 1.78058 59.9526 1.53423 59.8605 1.30437C59.7684 1.07452 59.6334 0.86567 59.4632 0.689748C59.293 0.513826 59.091 0.374277 58.8686 0.279068C58.6463 0.18386 58.408 0.134857 58.1673 0.134857V0.15273ZM40.013 20.0719C39.2895 20.0737 38.5817 19.854 37.9788 19.4407C37.3758 19.0274 36.9047 18.4388 36.6247 17.7492C36.3448 17.0596 36.2685 16.2998 36.4054 15.5655C36.5424 14.8311 36.8866 14.1551 37.3945 13.6226C37.9025 13.0901 38.5515 12.7248 39.2599 12.5729C39.9683 12.421 40.7043 12.4891 41.3753 12.7688C42.0463 13.0485 42.6222 13.5272 43.0305 14.1446C43.4388 14.7619 43.6612 15.4904 43.6698 16.2382C43.6755 16.7403 43.5846 17.2386 43.4024 17.704C43.2203 18.1695 42.9504 18.5929 42.6085 18.9496C42.2667 19.3063 41.8597 19.5892 41.4111 19.7819C40.9625 19.9746 40.4814 20.0732 39.9957 20.0719H40.013Z" fill="#2E2E2E"/>
<path d="M5.31797 68.8453C1.99664 68.8453 0.172786 67.1385 0 64.3403H2.97576C3.03336 65.3723 3.60931 66.4042 5.39477 66.4042C6.89225 66.4042 7.66019 65.789 7.66019 64.9357C7.66019 63.8838 6.37389 63.606 4.87641 63.2686C2.78378 62.7526 0.230382 62.1176 0.230382 58.8827C0.230382 56.5012 2.01584 54.7349 5.16439 54.7349C8.37053 54.7349 10.1368 56.5409 10.3288 59.2002H7.33381C7.27622 58.1087 6.70026 57.2355 5.08759 57.2355C3.89729 57.2355 3.11015 57.7316 3.11015 58.6247C3.11015 59.7758 4.41565 60.0933 5.91313 60.4505C8.06335 60.9467 10.6359 61.5023 10.6359 64.5586C10.6359 67.0393 8.7545 68.8453 5.31797 68.8453ZM18.2001 68.5873H15.2244V57.811H11.3079V54.9929H22.1166V57.811H18.2001V68.5873ZM28.3753 57.811H26.1867V61.4428H28.2793C29.5656 61.4428 30.3528 60.6887 30.3528 59.6368C30.3528 58.585 29.7 57.811 28.3753 57.811ZM26.1867 63.9632V68.5873H23.2109V54.9929H28.8169C31.6199 54.9929 33.3477 56.8584 33.3477 59.5178C33.3477 61.6413 31.9846 63.4075 29.7576 63.864L33.9429 68.5873H30.0648L26.1867 63.9632ZM37.9938 68.5873H35.018V54.9929H37.9938V68.5873ZM42.563 61.3237L47.2474 54.9929H50.7223L45.5004 61.7802L50.8759 68.5873H47.017L42.563 62.7923V68.5873H39.5872V54.9929H42.563V61.3237ZM51.6247 68.5873V54.9929H61.2431V57.7713H54.6004V60.3314H60.7439V63.0305H54.6004V65.8089H61.2623V68.5873H51.6247ZM73.031 68.8651C69.1913 68.8651 66.0619 65.8287 66.0619 61.8C66.0619 57.7515 69.1913 54.7151 73.031 54.7151C76.9666 54.7151 80 57.7515 80 61.7802C80 65.8287 76.9666 68.8651 73.031 68.8651ZM73.031 66.0073C75.258 66.0073 76.9666 64.1815 76.9666 61.7802C76.9666 59.4185 75.258 57.5729 73.031 57.5729C70.8039 57.5729 69.0953 59.4185 69.0953 61.8C69.0953 64.1815 70.8039 66.0073 73.031 66.0073Z" fill="#2E2E2E"/>
</svg>
