<svg width="14" height="15" viewBox="0 0 14 15" fill="none" xmlns="http://www.w3.org/2000/svg">
<g clip-path="url(#clip0_216_50208)">
<path d="M14 6.14971C12.6733 6.15279 11.3792 5.75055 10.3005 4.9998V10.2357C10.3001 11.2055 9.99521 12.152 9.42659 12.9488C8.85797 13.7455 8.05271 14.3545 7.11848 14.6943C6.18426 15.0341 5.1656 15.0885 4.19871 14.8502C3.23183 14.612 2.3628 14.0924 1.70784 13.361C1.05288 12.6296 0.643198 11.7212 0.53358 10.7573C0.423961 9.79347 0.619629 8.82003 1.09442 7.96718C1.56921 7.11434 2.30049 6.42274 3.19049 5.98487C4.08048 5.54701 5.08676 5.38374 6.07477 5.51689V8.15039C5.62265 8.01213 5.13716 8.01629 4.68763 8.16229C4.23809 8.30829 3.8475 8.58865 3.57163 8.96334C3.29576 9.33803 3.14872 9.78789 3.15152 10.2487C3.15431 10.7094 3.30679 11.1576 3.58717 11.5291C3.86756 11.9006 4.26152 12.1765 4.7128 12.3173C5.16407 12.4581 5.64958 12.4567 6.09999 12.3133C6.5504 12.1699 6.94268 11.8918 7.2208 11.5187C7.49893 11.1455 7.64868 10.6965 7.64866 10.2357V0H10.3005C10.2986 0.217717 10.3174 0.435137 10.3565 0.649512C10.4486 1.12807 10.6402 1.58332 10.9196 1.98742C11.1989 2.39152 11.5601 2.73597 11.981 2.99971C12.5799 3.38469 13.282 3.58989 14 3.58975V6.14971Z" fill="#141414"/>
</g>
<defs>
<clipPath id="clip0_216_50208">
<rect width="13.5" height="15" fill="white" transform="translate(0.5)"/>
</clipPath>
</defs>
</svg>
