<svg xmlns="http://www.w3.org/2000/svg" width="174" height="126" viewBox="0 0 174 126" fill="none">
<g opacity="0.5">
<path d="M17.7291 124.229L44.9819 3.42154H26.1083V2.20125H75.0821L47.4225 124.229H17.7291ZM-0.00561523 124.229V123.009H65.5639V124.229H-0.00561523Z" fill="#343434"/>
<path d="M108.576 125.856C100.82 125.856 94.1494 124.039 88.5632 120.405C82.9771 116.772 78.6654 112.026 75.6283 106.169C72.5912 100.257 71.0726 93.8847 71.0726 87.0512C71.0726 77.6686 72.2386 68.6928 74.5707 60.1237C76.957 51.5004 80.2111 43.5822 84.3329 36.369C88.509 29.1016 93.3359 22.8104 98.8135 17.4954C104.345 12.1262 110.284 7.97724 116.63 5.04857C122.975 2.06567 129.51 0.574219 136.235 0.574219C143.937 0.574219 150.58 2.39108 156.167 6.02479C161.807 9.60427 166.119 14.3498 169.101 20.2613C172.139 26.1729 173.657 32.5455 173.657 39.379C173.657 48.7616 172.491 57.7645 170.159 66.3878C167.827 74.9569 164.573 82.8751 160.397 90.1425C156.221 97.3557 151.367 103.647 145.835 109.016C140.357 114.331 134.446 118.48 128.1 121.463C121.755 124.392 115.247 125.856 108.576 125.856ZM108.576 124.717C111.45 124.717 114.243 123.28 116.955 120.405C119.667 117.531 122.27 113.653 124.765 108.772C127.26 103.837 129.565 98.2777 131.68 92.095C133.849 85.9122 135.801 79.4854 137.537 72.8146C139.273 66.1437 140.737 59.5814 141.93 53.1275C143.177 46.6736 144.126 40.7349 144.777 35.3114C145.482 29.8337 145.835 25.3052 145.835 21.7257C145.835 18.8512 145.699 16.2209 145.428 13.8346C145.211 11.394 144.75 9.27886 144.045 7.48912C143.394 5.64514 142.418 4.23505 141.116 3.25883C139.869 2.22838 138.242 1.71315 136.235 1.71315C133.307 1.71315 130.486 3.12325 127.775 5.94344C125.063 8.7094 122.46 12.5058 119.965 17.3327C117.47 22.1053 115.138 27.5288 112.969 33.603C110.854 39.6773 108.928 46.0227 107.193 52.6394C105.457 59.256 103.966 65.8183 102.718 72.3265C101.525 78.7804 100.576 84.8004 99.8711 90.3866C99.2203 95.9727 98.8949 100.745 98.8949 104.704C98.8949 107.525 99.0034 110.155 99.2203 112.596C99.4915 115.036 99.9525 117.178 100.603 119.022C101.308 120.812 102.285 122.222 103.532 123.253C104.834 124.229 106.515 124.717 108.576 124.717Z" fill="#343434"/>
</g>
</svg>