<svg xmlns="http://www.w3.org/2000/svg" width="53" height="33" viewBox="0 0 53 33" fill="none">
<path fill-rule="evenodd" clip-rule="evenodd" d="M26.0756 28.5607C23.3138 30.944 19.7312 32.3828 15.8164 32.3828C7.08124 32.3828 0 25.2194 0 16.3828C0 7.54626 7.08124 0.382812 15.8164 0.382812C19.7312 0.382812 23.3138 1.8216 26.0756 4.20497C28.8375 1.8216 32.4201 0.382812 36.3349 0.382812C45.0701 0.382812 52.1513 7.54626 52.1513 16.3828C52.1513 25.2194 45.0701 32.3828 36.3349 32.3828C32.4201 32.3828 28.8375 30.944 26.0756 28.5607Z" fill="#ED0006"/>
<path fill-rule="evenodd" clip-rule="evenodd" d="M26.0757 28.5609C29.4764 25.6262 31.6328 21.2594 31.6328 16.3831C31.6328 11.5067 29.4764 7.13991 26.0757 4.20522C28.8376 1.82185 32.4201 0.383057 36.3349 0.383057C45.0701 0.383057 52.1513 7.5465 52.1513 16.3831C52.1513 25.2196 45.0701 32.3831 36.3349 32.3831C32.4201 32.3831 28.8376 30.9443 26.0757 28.5609Z" fill="#F9A000"/>
<path fill-rule="evenodd" clip-rule="evenodd" d="M26.0756 28.5606C29.4763 25.6259 31.6327 21.2591 31.6327 16.3829C31.6327 11.5066 29.4763 7.13977 26.0756 4.20508C22.6749 7.13977 20.5186 11.5066 20.5186 16.3829C20.5186 21.2591 22.6749 25.6259 26.0756 28.5606Z" fill="#FF5E00"/>
</svg>