<svg xmlns="http://www.w3.org/2000/svg" width="24" height="25" viewBox="0 0 24 25" fill="none">
<path d="M2.7 5.56006C2.0408 5.56006 1.5 6.10086 1.5 6.76006V10.9601H1.8C2.79767 10.9601 3.6 11.7624 3.6 12.7601C3.6 13.7577 2.79767 14.5601 1.8 14.5601H1.5V18.7601C1.5 19.4193 2.0408 19.9601 2.7 19.9601H21.3C21.9592 19.9601 22.5 19.4193 22.5 18.7601V14.5601H22.2C21.2023 14.5601 20.4 13.7577 20.4 12.7601C20.4 11.7624 21.2023 10.9601 22.2 10.9601H22.5V6.76006C22.5 6.10086 21.9592 5.56006 21.3 5.56006H2.7ZM2.7 6.16006H7.2C7.2 6.23962 7.23161 6.31593 7.28787 6.37219C7.34413 6.42845 7.42044 6.46006 7.5 6.46006C7.57957 6.46006 7.65587 6.42845 7.71213 6.37219C7.76839 6.31593 7.8 6.23962 7.8 6.16006H21.3C21.635 6.16006 21.9 6.42506 21.9 6.76006V10.421C20.7254 10.5755 19.8 11.5444 19.8 12.7601C19.8 13.9757 20.7254 14.9447 21.9 15.0991V18.7601C21.9 19.0951 21.635 19.3601 21.3 19.3601H7.8C7.8 19.2805 7.76839 19.2042 7.71213 19.1479C7.65587 19.0917 7.57957 19.0601 7.5 19.0601C7.42044 19.0601 7.34413 19.0917 7.28787 19.1479C7.23161 19.2042 7.2 19.2805 7.2 19.3601H2.7C2.365 19.3601 2.1 19.0951 2.1 18.7601V15.0991C3.27462 14.9447 4.2 13.9757 4.2 12.7601C4.2 11.5444 3.27462 10.5755 2.1 10.421V6.76006C2.1 6.42506 2.365 6.16006 2.7 6.16006ZM7.5 7.06006C7.42044 7.06006 7.34413 7.09167 7.28787 7.14793C7.23161 7.20419 7.2 7.28049 7.2 7.36006C7.2 7.43962 7.23161 7.51593 7.28787 7.57219C7.34413 7.62845 7.42044 7.66006 7.5 7.66006C7.57957 7.66006 7.65587 7.62845 7.71213 7.57219C7.76839 7.51593 7.8 7.43962 7.8 7.36006C7.8 7.28049 7.76839 7.20419 7.71213 7.14793C7.65587 7.09167 7.57957 7.06006 7.5 7.06006ZM7.5 8.26006C7.42044 8.26006 7.34413 8.29167 7.28787 8.34793C7.23161 8.40419 7.2 8.48049 7.2 8.56006C7.2 8.63962 7.23161 8.71593 7.28787 8.77219C7.34413 8.82845 7.42044 8.86006 7.5 8.86006C7.57957 8.86006 7.65587 8.82845 7.71213 8.77219C7.76839 8.71593 7.8 8.63962 7.8 8.56006C7.8 8.48049 7.76839 8.40419 7.71213 8.34793C7.65587 8.29167 7.57957 8.26006 7.5 8.26006ZM11.7293 9.05342C10.8356 9.05342 10.2 9.76866 10.2 10.7767C10.2 11.7898 10.8356 12.5046 11.7293 12.5046C12.623 12.5046 13.2539 11.7895 13.2539 10.7767C13.2539 9.76356 12.623 9.05342 11.7293 9.05342ZM15.985 9.17764L13.4725 12.6083L10.7361 16.3425H11.6496L14.1076 12.981L16.8885 9.17764H15.985ZM7.5 9.46006C7.42044 9.46006 7.34413 9.49167 7.28787 9.54793C7.23161 9.60419 7.2 9.68049 7.2 9.76006C7.2 9.83962 7.23161 9.91593 7.28787 9.97219C7.34413 10.0285 7.42044 10.0601 7.5 10.0601C7.57957 10.0601 7.65587 10.0285 7.71213 9.97219C7.76839 9.91593 7.8 9.83962 7.8 9.76006C7.8 9.68049 7.76839 9.60419 7.71213 9.54793C7.65587 9.49167 7.57957 9.46006 7.5 9.46006ZM11.7293 9.68916C12.1763 9.68916 12.4594 10.1062 12.4594 10.7767C12.4594 11.4322 12.1661 11.8688 11.7293 11.8688C11.2874 11.8688 10.9945 11.437 10.9945 10.7767C10.9945 10.1164 11.2823 9.68916 11.7293 9.68916ZM7.5 10.6601C7.42044 10.6601 7.34413 10.6917 7.28787 10.7479C7.23161 10.8042 7.2 10.8805 7.2 10.9601C7.2 11.0396 7.23161 11.1159 7.28787 11.1722C7.34413 11.2285 7.42044 11.2601 7.5 11.2601C7.57957 11.2601 7.65587 11.2285 7.71213 11.1722C7.76839 11.1159 7.8 11.0396 7.8 10.9601C7.8 10.8805 7.76839 10.8042 7.71213 10.7479C7.65587 10.6917 7.57957 10.6601 7.5 10.6601ZM7.5 11.8601C7.42044 11.8601 7.34413 11.8917 7.28787 11.9479C7.23161 12.0042 7.2 12.0805 7.2 12.1601C7.2 12.2396 7.23161 12.3159 7.28787 12.3722C7.34413 12.4285 7.42044 12.4601 7.5 12.4601C7.57957 12.4601 7.65587 12.4285 7.71213 12.3722C7.76839 12.3159 7.8 12.2396 7.8 12.1601C7.8 12.0805 7.76839 12.0042 7.71213 11.9479C7.65587 11.8917 7.57957 11.8601 7.5 11.8601ZM15.876 13.0155C14.9823 13.0155 14.3461 13.7308 14.3461 14.7388C14.3461 15.7519 14.9823 16.4667 15.876 16.4667C16.7697 16.4667 17.4 15.7516 17.4 14.7388C17.4 13.7257 16.7697 13.0155 15.876 13.0155ZM7.5 13.0601C7.42044 13.0601 7.34413 13.0917 7.28787 13.1479C7.23161 13.2042 7.2 13.2805 7.2 13.3601C7.2 13.4396 7.23161 13.5159 7.28787 13.5722C7.34413 13.6285 7.42044 13.6601 7.5 13.6601C7.57957 13.6601 7.65587 13.6285 7.71213 13.5722C7.76839 13.5159 7.8 13.4396 7.8 13.3601C7.8 13.2805 7.76839 13.2042 7.71213 13.1479C7.65587 13.0917 7.57957 13.0601 7.5 13.0601ZM15.876 13.6513C16.323 13.6513 16.6055 14.0683 16.6055 14.7388C16.6055 15.3943 16.3128 15.831 15.876 15.831C15.4341 15.831 15.1406 15.3991 15.1406 14.7388C15.1406 14.0785 15.429 13.6513 15.876 13.6513ZM7.5 14.2601C7.42044 14.2601 7.34413 14.2917 7.28787 14.3479C7.23161 14.4042 7.2 14.4805 7.2 14.5601C7.2 14.6396 7.23161 14.7159 7.28787 14.7722C7.34413 14.8285 7.42044 14.8601 7.5 14.8601C7.57957 14.8601 7.65587 14.8285 7.71213 14.7722C7.76839 14.7159 7.8 14.6396 7.8 14.5601C7.8 14.4805 7.76839 14.4042 7.71213 14.3479C7.65587 14.2917 7.57957 14.2601 7.5 14.2601ZM7.5 15.4601C7.42044 15.4601 7.34413 15.4917 7.28787 15.5479C7.23161 15.6042 7.2 15.6805 7.2 15.7601C7.2 15.8396 7.23161 15.9159 7.28787 15.9722C7.34413 16.0285 7.42044 16.0601 7.5 16.0601C7.57957 16.0601 7.65587 16.0285 7.71213 15.9722C7.76839 15.9159 7.8 15.8396 7.8 15.7601C7.8 15.6805 7.76839 15.6042 7.71213 15.5479C7.65587 15.4917 7.57957 15.4601 7.5 15.4601ZM7.5 16.6601C7.42044 16.6601 7.34413 16.6917 7.28787 16.7479C7.23161 16.8042 7.2 16.8805 7.2 16.9601C7.2 17.0396 7.23161 17.1159 7.28787 17.1722C7.34413 17.2285 7.42044 17.2601 7.5 17.2601C7.57957 17.2601 7.65587 17.2285 7.71213 17.1722C7.76839 17.1159 7.8 17.0396 7.8 16.9601C7.8 16.8805 7.76839 16.8042 7.71213 16.7479C7.65587 16.6917 7.57957 16.6601 7.5 16.6601ZM7.5 17.8601C7.42044 17.8601 7.34413 17.8917 7.28787 17.9479C7.23161 18.0042 7.2 18.0805 7.2 18.1601C7.2 18.2396 7.23161 18.3159 7.28787 18.3722C7.34413 18.4285 7.42044 18.4601 7.5 18.4601C7.57957 18.4601 7.65587 18.4285 7.71213 18.3722C7.76839 18.3159 7.8 18.2396 7.8 18.1601C7.8 18.0805 7.76839 18.0042 7.71213 17.9479C7.65587 17.8917 7.57957 17.8601 7.5 17.8601Z" fill="black"/>
</svg>