<svg xmlns="http://www.w3.org/2000/svg" width="25" height="25" viewBox="0 0 25 25" fill="none">
<path d="M12.5001 3.98389C9.1513 3.98389 4.80479 4.82295 4.80479 4.82295L4.79385 4.83545C3.26863 5.07938 2.1001 6.38999 2.1001 7.98389V12.7839V12.7854V17.5839V17.5855C2.10159 18.3467 2.37439 19.0824 2.86954 19.6606C3.36468 20.2388 4.04972 20.6216 4.80166 20.7401L4.80479 20.7448C4.80479 20.7448 9.1513 21.5855 12.5001 21.5855C15.8489 21.5855 20.1954 20.7448 20.1954 20.7448L20.197 20.7433C20.9497 20.6249 21.6356 20.2419 22.1311 19.663C22.6266 19.0841 22.8993 18.3474 22.9001 17.5855V17.5839V12.7854V12.7839V7.98389C22.899 7.22239 22.6263 6.48625 22.1312 5.90773C21.636 5.32922 20.9507 4.94625 20.1985 4.82764L20.1954 4.82295C20.1954 4.82295 15.8489 3.98389 12.5001 3.98389ZM10.1001 9.10264L16.5001 12.7839L10.1001 16.4651V9.10264Z" fill="#333333"/>
</svg>